PathFileType	4	(x/y/z)	S04_PSF_T02.trc
DataRate	CameraRate	NumFrames	NumMarkers	Units	OrigDataRate	OrigDataStartFrame	OrigNumFrames
240	240	4	51	mm	240	108	430
Frame#	Time	Sternum			R.Acromium			L.Acromium			Top.Head			R.ASIS			L.ASIS			R.PSIS			L.PSIS			R.Great.Tro			L.Great.Tro			R.Iliac.Crest			L.Iliac.Crest			V.Sacral			R.Thigh.Upper.Post			R.Thigh.Lower.Ant			R.Thigh.Lower.Post			R.Thigh.Upper.Ant			R.Knee.Lat			R.Knee.Med			R.Shank.Upper.Post			R.Shank.Lower.Ant			R.Shank.Lower.Post			R.Shank.Upper.Ant			R.Ankle.Lat			R.Ankle.Med			R.Heel.Upper			R.Heel.Med			R.Heel.Lat			R.Toe.Lat			R.Toe.Med			R.Toe.Tip			L.Thigh.Upper.Post			L.Thigh.Lower.Ant			L.Thigh.Lower.Post			L.Thigh.Upper.Ant			L.Knee.Lat			L.Knee.Med			L.Shank.Upper.Post			L.Shank.Lower.Ant			L.Shank.Lower.Post			L.Shank.Upper.Ant			L.Ankle.Lat			L.Ankle.Med			L.Heel.Upper			L.Heel.Med			L.Heel.Lat			L.Toe.Lat			L.Toe.Med			L.Toe.Tip			Cervical.Spine			Back			
		X1	Y1	Z1	X2	Y2	Z2	X3	Y3	Z3	X4	Y4	Z4	X5	Y5	Z5	X6	Y6	Z6	X7	Y7	Z7	X8	Y8	Z8	X9	Y9	Z9	X10	Y10	Z10	X11	Y11	Z11	X12	Y12	Z12	X13	Y13	Z13	X14	Y14	Z14	X15	Y15	Z15	X16	Y16	Z16	X17	Y17	Z17	X18	Y18	Z18	X19	Y19	Z19	X20	Y20	Z20	X21	Y21	Z21	X22	Y22	Z22	X23	Y23	Z23	X24	Y24	Z24	X25	Y25	Z25	X26	Y26	Z26	X27	Y27	Z27	X28	Y28	Z28	X29	Y29	Z29	X30	Y30	Z30	X31	Y31	Z31	X32	Y32	Z32	X33	Y33	Z33	X34	Y34	Z34	X35	Y35	Z35	X36	Y36	Z36	X37	Y37	Z37	X38	Y38	Z38	X39	Y39	Z39	X40	Y40	Z40	X41	Y41	Z41	X42	Y42	Z42	X43	Y43	Z43	X44	Y44	Z44	X45	Y45	Z45	X46	Y46	Z46	X47	Y47	Z47	X48	Y48	Z48	X49	Y49	Z49	X50	Y50	Z50	X51	Y51	Z51	

108	0.44583	-974.94	1277.6	256.12	-1101.2	1510	425.29	-1096.5	1494.2	76.824	-1044.1	1833.7	239.17	-1004.1	998.8	385.73	-1007.2	1014.5	136.78	NaN	NaN	NaN	-1217.3	1043.7	214.26	-1090.4	920.17	456.02	-1133.8	934.81	79.131	-1091.2	1092.3	432.8	-1107.9	1095.9	97.41	-1241.4	997.99	254.47	-986.64	676.13	446.26	-887.09	628.53	407.07	-951.95	592.39	430.45	-920.52	733.03	428.8	-909.3	537.28	417.77	-925.33	527.88	290.71	-975.16	312.07	415.01	-901.35	236.78	383.46	-970.57	242.03	402.12	-909.19	306.65	404.52	-950.16	124.18	386.79	-921.75	141.38	301.62	-1006.8	88.474	324.77	-989.73	61.176	294.68	-1001.9	54.706	357.66	-839.82	57.982	424.16	-790.87	69.315	312.23	-736.76	91.522	366.26	-1177.4	708.48	93.321	-1111.2	601.74	99.377	-1178.8	620.92	103.13	-1112.9	690.88	83.748	-1159.3	515.93	112.59	-1156.2	505.58	235.39	-1267.8	349.74	114.29	-1211.1	254.64	118.15	-1271.2	272.41	122.18	-1208.1	330.73	110.1	-1258.6	108.24	142.69	-1252.6	115.17	233.71	-1332.9	77.447	183.22	-1328.9	50.871	215.26	-1329.1	52.324	153.76	-1145	43.413	120.55	-1117.6	43.012	237.85	-1057.7	51.937	190.39	-1143.6	1557.7	252.92	-1237	1303.1	233.8
109	0.45	-969.52	1276.7	256.61	-1096	1509.3	425.77	-1090.7	1493.5	77.254	-1038.3	1833	239.59	-998.7	998.01	385.91	-1002	1013.7	137	NaN	NaN	NaN	-1212	1043	214.61	-1085	919.47	456.35	-1129	934.29	79.39	-1085.9	1091.4	433.1	-1102.6	1095.2	97.673	-1236.1	997.32	254.8	-981.65	675.3	446.59	-882.07	627.74	407.51	-946.94	591.6	430.85	-915.56	732.24	429.15	-903.71	536.79	418.29	-919.91	526.94	291.27	-964.25	310.21	415.85	-888.63	236.83	384.22	-957.9	240.33	403.03	-898.22	306.45	405.22	-934.45	122.99	387.67	-906.42	140.74	302.4	-990.37	85.931	325.77	-972.73	58.964	295.71	-984.64	52.325	358.73	-822.53	59.591	424.91	-774.1	71.726	312.84	-720.44	95.357	366.69	-1173.9	708.48	93.584	-1108.3	601.37	99.722	-1175.5	621.06	103.16	-1109.6	690.54	84.084	-1157	515.76	112.77	-1154	505.39	235.55	-1266.7	350.01	114.64	-1210.1	254.74	118.32	-1270.1	272.87	122.31	-1206.8	330.8	110.26	-1258.8	108.54	142.98	-1252.2	115.37	233.98	-1332.8	77.731	183.51	-1328.8	51.079	215.5	-1329	52.648	154.01	-1145	43.445	120.62	-1117.5	42.867	237.93	-1057.6	51.694	190.45	-1138	1556.9	253.3	-1231.6	1302.4	234.01
110	0.45417	-964.08	1275.8	257.12	-1090.7	1508.5	426.25	-1084.9	1492.8	77.701	-1032.6	1832.2	240.02	-993.28	997.19	386.09	-996.84	1012.9	137.23	NaN	NaN	NaN	-1206.6	1042.3	214.98	-1079.6	918.74	456.67	-1124.1	933.75	79.649	-1080.5	1090.6	433.4	-1097.4	1094.5	97.941	-1230.7	996.62	255.14	-976.72	674.41	446.94	-877.11	626.87	407.99	-942.02	590.73	431.27	-910.64	731.36	429.52	-898.21	536.23	418.85	-914.59	525.92	291.85	-953.4	308.41	416.71	-876.04	236.98	384.98	-945.32	238.75	403.95	-887.37	306.32	405.93	-918.87	122	388.54	-891.25	140.27	303.18	-974.06	83.588	326.76	-955.82	56.964	296.74	-967.45	50.175	359.8	-805.42	61.405	425.63	-757.55	74.324	313.44	-704.36	99.379	367.11	-1170.4	708.46	93.851	-1105.4	600.99	100.07	-1172.2	621.18	103.2	-1106.2	690.18	84.415	-1154.8	515.6	112.95	-1151.7	505.19	235.71	-1265.5	350.3	114.98	-1209.2	254.84	118.49	-1269	273.34	122.46	-1205.5	330.88	110.42	-1259	108.85	143.27	-1251.9	115.58	234.25	-1332.7	78.049	183.8	-1328.7	51.319	215.75	-1328.9	52.997	154.26	-1145	43.476	120.69	-1117.4	42.725	238	-1057.5	51.449	190.5	-1132.5	1556.2	253.69	-1226.1	1301.7	234.23
111	0.45833	-958.63	1274.9	257.63	-1085.4	1507.7	426.76	-1079.2	1492	78.164	-1026.9	1831.4	240.47	-987.83	996.35	386.28	-991.62	1012.1	137.46	NaN	NaN	NaN	-1201.1	1041.5	215.36	-1074.2	917.97	456.99	-1119.2	933.19	79.908	-1075.2	1089.7	433.7	-1092.2	1093.8	98.217	-1225.3	995.89	255.48	-971.84	673.47	447.31	-872.22	625.91	408.5	-937.17	589.81	431.72	-905.77	730.41	429.92	-892.79	535.61	419.44	-909.35	524.83	292.45	-942.63	306.68	417.59	-863.59	237.24	385.74	-932.84	237.27	404.88	-876.63	306.26	406.65	-903.44	121.19	389.41	-876.27	139.97	303.96	-957.86	81.445	327.76	-939.04	55.173	297.77	-950.38	48.253	360.87	-788.52	63.412	426.34	-741.23	77.101	314.02	-688.53	103.58	367.5	-1166.9	708.43	94.124	-1102.5	600.61	100.41	-1168.9	621.28	103.25	-1102.7	689.82	84.741	-1152.5	515.43	113.14	-1149.4	504.99	235.88	-1264.3	350.61	115.3	-1208.3	254.94	118.67	-1267.9	273.8	122.62	-1204.2	330.96	110.59	-1259.1	109.17	143.54	-1251.5	115.81	234.51	-1332.6	78.405	184.09	-1328.6	51.593	215.99	-1328.8	53.374	154.51	-1144.9	43.506	120.76	-1117.3	42.587	238.08	-1057.4	51.201	190.54	-1126.9	1555.4	254.1	-1220.6	1301	234.47
